# xmcd
# 
# Track frame offsets:
#     150
#     15715
#     35466
#     51114
#     68055
#     86632
#     102045
#     113631
#     128219
#     145047
#     157246
#     172497
#     185427
# 
# Disc length: 2684
# 
# Revision: 2
# Processed by: cddbd v1.5.2PL0 Copyright (c) Steve Scherf et al.
# Submitted via: fre:ac v1.0.17
# 
DISCID=b20a7a0d
DTITLE=Johnny Madsen - Madsen På Den Anden Side
DYEAR=2004
DGENRE=Ballad
TTITLE0=Dans Amigo (2004-version)
TTITLE1=Den Rejsendes Dag (2004-version)
TTITLE2=Get Along (2004-version)
TTITLE3=Vinden Vender (2004-version)
TTITLE4=Hjemad (2004-version)
TTITLE5=Jenny (2004-version)
TTITLE6=Akvariefisk (2004-version)
TTITLE7=Sølverbue (2004-version)
TTITLE8=Sergei Og Johnny (2004-version)
TTITLE9=Snedkertøsen (2004-version)
TTITLE10=Billy Og Villy (2004-version)
TTITLE11=Glasmanden (2004-version)
TTITLE12=Nu Falmer Skoven Trindt Om Land (2004-version)
EXTD=Genindspilninger af tidligere udsendte sange
EXTT0=
EXTT1=
EXTT2=
EXTT3=
EXTT4=
EXTT5=
EXTT6=
EXTT7=
EXTT8=
EXTT9=
EXTT10=
EXTT11=
EXTT12=
PLAYORDER=
